<?xml version="1.0" encoding="utf-8"?>
<!-- Generator: Adobe Illustrator 23.0.0, SVG Export Plug-In . SVG Version: 6.00 Build 0)  -->
<svg version="1.1" id="Layer_1" xmlns="http://www.w3.org/2000/svg" xmlns:xlink="http://www.w3.org/1999/xlink" x="0px" y="0px"
	 viewBox="0 0 84 84" style="enable-background:new 0 0 278 84;" xml:space="preserve">
<style type="text/css">
	.st0{fill:#24ACE3;}
	.st1{fill:#FFFFFF;}
</style>
<g>
	<g>
		<path class="st1" d="M41.8,0C19.7,0,1.7,17,0,38.5l22.5,9.3c1.9-1.3,4.2-2.1,6.7-2.1c0.2,0,0.4,0,0.7,0l10-14.5c0-0.1,0-0.1,0-0.2
			c0-8.7,7.1-15.8,15.8-15.8c8.7,0,15.8,7.1,15.8,15.8c0,8.7-7.1,15.8-15.8,15.8c-0.1,0-0.2,0-0.4,0L41,57.1c0,0.2,0,0.4,0,0.6
			c0,6.5-5.3,11.9-11.9,11.9c-5.7,0-10.5-4.1-11.6-9.5L1.4,53.3c5,17.6,21.1,30.5,40.3,30.5c23.1,0,41.9-18.8,41.9-41.9
			C83.7,18.8,64.9,0,41.8,0z"/>
		<path class="st1" d="M26.3,63.6l-5.1-2.1c0.9,1.9,2.5,3.5,4.6,4.4c4.5,1.9,9.8-0.3,11.6-4.8c0.9-2.2,0.9-4.6,0-6.8
			c-0.9-2.2-2.6-3.9-4.8-4.8c-2.2-0.9-4.5-0.9-6.6-0.1l5.3,2.2c3.3,1.4,4.9,5.2,3.5,8.6C33.4,63.4,29.6,65,26.3,63.6z"/>
		<path class="st1" d="M66.1,31.1c0-5.8-4.7-10.5-10.5-10.5s-10.5,4.7-10.5,10.5s4.7,10.5,10.5,10.5S66.1,36.9,66.1,31.1z
			 M47.7,31.1c0-4.4,3.5-7.9,7.9-7.9c4.4,0,7.9,3.5,7.9,7.9c0,4.4-3.5,7.9-7.9,7.9C51.2,39,47.7,35.5,47.7,31.1z"/>
	</g>
</g>
</svg>
